<svg width="24" height="24" viewBox="0 0 24 24" fill="none" xmlns="http://www.w3.org/2000/svg">
<path fill-rule="evenodd" clip-rule="evenodd" d="M21.1875 1.875H20.0625V0H18.1875V1.875H5.8125V0H3.9375V1.875H2.8125C1.26169 1.875 0 3.13669 0 4.6875V21.1875C0 22.7383 1.26169 24 2.8125 24H21.1875C22.7383 24 24 22.7383 24 21.1875V4.6875C24 3.13669 22.7383 1.875 21.1875 1.875ZM22.125 21.1875C22.125 21.7044 21.7044 22.125 21.1875 22.125H2.8125C2.29556 22.125 1.875 21.7044 1.875 21.1875V8.8125H22.125V21.1875ZM1.875 6.9375H22.125V4.6875C22.125 4.17056 21.7044 3.75 21.1875 3.75H20.0625V5.625H18.1875V3.75H5.8125V5.625H3.9375V3.75H2.8125C2.29556 3.75 1.875 4.17056 1.875 4.6875V6.9375Z" fill="url(#paint0_linear)"/>
<rect x="3.5625" y="10.7812" width="1.875" height="1.875" fill="url(#paint1_linear)"/>
<rect x="7.3125" y="10.7812" width="1.875" height="1.875" fill="url(#paint2_linear)"/>
<rect x="11.0625" y="10.7812" width="1.875" height="1.875" fill="url(#paint3_linear)"/>
<rect x="14.8125" y="10.7812" width="1.875" height="1.875" fill="url(#paint4_linear)"/>
<rect x="18.5625" y="10.7812" width="1.875" height="1.875" fill="url(#paint5_linear)"/>
<rect x="3.5625" y="14.5312" width="1.875" height="1.875" fill="url(#paint6_linear)"/>
<rect x="7.3125" y="14.5312" width="1.875" height="1.875" fill="url(#paint7_linear)"/>
<rect x="11.0625" y="14.5312" width="1.875" height="1.875" fill="url(#paint8_linear)"/>
<rect x="14.8125" y="14.5312" width="1.875" height="1.875" fill="url(#paint9_linear)"/>
<rect x="3.5625" y="18.2812" width="1.875" height="1.875" fill="url(#paint10_linear)"/>
<rect x="7.3125" y="18.2812" width="1.875" height="1.875" fill="url(#paint11_linear)"/>
<rect x="11.0625" y="18.2812" width="1.875" height="1.875" fill="url(#paint12_linear)"/>
<rect x="14.8125" y="18.2812" width="1.875" height="1.875" fill="url(#paint13_linear)"/>
<rect x="18.5625" y="14.5312" width="1.875" height="1.875" fill="url(#paint14_linear)"/>
<defs>
<linearGradient id="paint0_linear" x1="-2.51429" y1="7.2967" x2="6.43399" y2="29.7409" gradientUnits="userSpaceOnUse">
<stop stop-color="#26D0CE"/>
<stop offset="1" stop-color="#1A2980"/>
</linearGradient>
<linearGradient id="paint1_linear" x1="3.36607" y1="11.3513" x2="4.06516" y2="13.1048" gradientUnits="userSpaceOnUse">
<stop stop-color="#26D0CE"/>
<stop offset="1" stop-color="#1A2980"/>
</linearGradient>
<linearGradient id="paint2_linear" x1="7.11607" y1="11.3513" x2="7.81516" y2="13.1048" gradientUnits="userSpaceOnUse">
<stop stop-color="#26D0CE"/>
<stop offset="1" stop-color="#1A2980"/>
</linearGradient>
<linearGradient id="paint3_linear" x1="10.8661" y1="11.3513" x2="11.5652" y2="13.1048" gradientUnits="userSpaceOnUse">
<stop stop-color="#26D0CE"/>
<stop offset="1" stop-color="#1A2980"/>
</linearGradient>
<linearGradient id="paint4_linear" x1="14.6161" y1="11.3513" x2="15.3152" y2="13.1048" gradientUnits="userSpaceOnUse">
<stop stop-color="#26D0CE"/>
<stop offset="1" stop-color="#1A2980"/>
</linearGradient>
<linearGradient id="paint5_linear" x1="18.3661" y1="11.3513" x2="19.0652" y2="13.1048" gradientUnits="userSpaceOnUse">
<stop stop-color="#26D0CE"/>
<stop offset="1" stop-color="#1A2980"/>
</linearGradient>
<linearGradient id="paint6_linear" x1="3.36607" y1="15.1013" x2="4.06516" y2="16.8548" gradientUnits="userSpaceOnUse">
<stop stop-color="#26D0CE"/>
<stop offset="1" stop-color="#1A2980"/>
</linearGradient>
<linearGradient id="paint7_linear" x1="7.11607" y1="15.1013" x2="7.81516" y2="16.8548" gradientUnits="userSpaceOnUse">
<stop stop-color="#26D0CE"/>
<stop offset="1" stop-color="#1A2980"/>
</linearGradient>
<linearGradient id="paint8_linear" x1="10.8661" y1="15.1013" x2="11.5652" y2="16.8548" gradientUnits="userSpaceOnUse">
<stop stop-color="#26D0CE"/>
<stop offset="1" stop-color="#1A2980"/>
</linearGradient>
<linearGradient id="paint9_linear" x1="14.6161" y1="15.1013" x2="15.3152" y2="16.8548" gradientUnits="userSpaceOnUse">
<stop stop-color="#26D0CE"/>
<stop offset="1" stop-color="#1A2980"/>
</linearGradient>
<linearGradient id="paint10_linear" x1="3.36607" y1="18.8513" x2="4.06516" y2="20.6048" gradientUnits="userSpaceOnUse">
<stop stop-color="#26D0CE"/>
<stop offset="1" stop-color="#1A2980"/>
</linearGradient>
<linearGradient id="paint11_linear" x1="7.11607" y1="18.8513" x2="7.81516" y2="20.6048" gradientUnits="userSpaceOnUse">
<stop stop-color="#26D0CE"/>
<stop offset="1" stop-color="#1A2980"/>
</linearGradient>
<linearGradient id="paint12_linear" x1="10.8661" y1="18.8513" x2="11.5652" y2="20.6048" gradientUnits="userSpaceOnUse">
<stop stop-color="#26D0CE"/>
<stop offset="1" stop-color="#1A2980"/>
</linearGradient>
<linearGradient id="paint13_linear" x1="14.6161" y1="18.8513" x2="15.3152" y2="20.6048" gradientUnits="userSpaceOnUse">
<stop stop-color="#26D0CE"/>
<stop offset="1" stop-color="#1A2980"/>
</linearGradient>
<linearGradient id="paint14_linear" x1="18.3661" y1="15.1013" x2="19.0652" y2="16.8548" gradientUnits="userSpaceOnUse">
<stop stop-color="#26D0CE"/>
<stop offset="1" stop-color="#1A2980"/>
</linearGradient>
</defs>
</svg>
