<svg width="339" height="295" viewBox="0 0 339 295" fill="none" xmlns="http://www.w3.org/2000/svg">
<path fill-rule="evenodd" clip-rule="evenodd" d="M120.027 138.154C129.74 131.603 139.427 125.068 152.186 118.144C237.653 61.3864 284.854 150.038 225.259 202.617L96.1547 285.919C19.0535 335.595 -2.84261 311.241 -21.3304 221.01L-60.888 28.779C-62.7471 -1.63764 -41.1092 -10.299 -22.7763 14.2585C-18.1389 25.2249 -13.5134 36.4246 -8.83537 47.7514C3.4172 77.4182 16.0295 107.956 30.1565 137.453C46.9401 172.354 54.0666 176.531 88.5117 157.833C100.98 151.002 110.516 144.57 120.027 138.154ZM265.922 79.1588C270.824 64.9795 283.901 55.1096 299.055 54.1516C319.747 52.8435 337.596 68.3318 338.923 88.7461C339.894 103.697 331.641 117.753 318.013 124.359C304.384 130.966 288.063 128.823 276.661 118.929C265.259 109.035 261.021 93.3381 265.922 79.1588Z" fill="#fff"/>
<defs>
<linearGradient id="paint0_linear" x1="-102.905" y1="94.6248" x2="-7.44723" y2="402.338" gradientUnits="userSpaceOnUse">
<stop stop-color="#26D0CE"/>
<stop offset="1" stop-color="#1A2980"/>
</linearGradient>
</defs>
</svg>
