<?xml version="1.0" encoding="UTF-8" standalone="no"?>
<svg width="25px" height="25px" viewBox="0 0 25 25" version="1.1" xmlns="http://www.w3.org/2000/svg" xmlns:xlink="http://www.w3.org/1999/xlink">
    <!-- Generator: Sketch 50.2 (55047) - http://www.bohemiancoding.com/sketch -->
    <title>moon</title>
    <desc>Created with Sketch.</desc>
    <defs>
        <linearGradient x1="36.2825521%" y1="11.7606707%" x2="73.5670573%" y2="105.278201%" id="linearGradient-1">
            <stop stop-color="#26D0CE" offset="0%"></stop>
            <stop stop-color="#1A2980" offset="100%"></stop>
        </linearGradient>
    </defs>
    <g id="Page-1" stroke="none" stroke-width="1" fill="none" fill-rule="evenodd">
        <g id="iPhone-8-Copy" transform="translate(-340.000000, -10.000000)" fill="url(#linearGradient-1)" fill-rule="nonzero">
            <g id="moon" transform="translate(340.000000, 10.000000)">
                <path d="M24.3769968,14.2299521 C24.1214058,14.1660543 23.8658147,14.2299521 23.6421725,14.3896965 C22.8115016,15.0925719 21.8530351,15.6676518 20.798722,16.0510383 C19.8083067,16.4344249 18.7220447,16.6261182 17.571885,16.6261182 C14.9840256,16.6261182 12.6198083,15.5718051 10.9265176,13.8785144 C9.23322684,12.1852236 8.17891374,9.82100639 8.17891374,7.23314696 C8.17891374,6.14688498 8.37060703,5.09257188 8.69009585,4.13410543 C9.04153355,3.11174121 9.55271565,2.18522364 10.2236422,1.3865016 C10.5111821,1.0350639 10.4472843,0.523881789 10.0958466,0.236341853 C9.87220447,0.0765974441 9.61661342,0.0126996805 9.36102236,0.0765974441 C6.64536741,0.811421725 4.28115016,2.4408147 2.58785942,4.61333866 C0.958466454,6.75391374 -2.84217094e-14,9.40567093 -2.84217094e-14,12.2810703 C-2.84217094e-14,15.7634984 1.4057508,18.9264377 3.70607029,21.2267572 C6.00638978,23.5270767 9.13738019,24.9328275 12.6517572,24.9328275 C15.5910543,24.9328275 18.3067093,23.9104633 20.4792332,22.2171725 C22.6837061,20.4919329 24.2811502,18.031869 24.9520767,15.2203674 C25.0798722,14.7730831 24.8242812,14.3257987 24.3769968,14.2299521 Z" id="Shape"></path>
            </g>
        </g>
    </g>
</svg>