<?xml version="1.0" encoding="UTF-8" standalone="no"?>
<svg width="25px" height="25px" viewBox="0 0 25 25" version="1.1" xmlns="http://www.w3.org/2000/svg" xmlns:xlink="http://www.w3.org/1999/xlink">
    <!-- Generator: Sketch 50.2 (55047) - http://www.bohemiancoding.com/sketch -->
    <title>sun</title>
    <desc>Created with Sketch.</desc>
    <defs></defs>
    <g id="Page-1" stroke="none" stroke-width="1" fill="none" fill-rule="evenodd">
        <g id="iPhone-8-Copy-2" transform="translate(-340.000000, -10.000000)" fill="#FFFFFF" fill-rule="nonzero">
            <g id="sun" transform="translate(340.000000, 10.000000)">
                <path d="M16.8976898,8.05280528 C15.7755776,6.93069307 14.1914191,6.20462046 12.4752475,6.20462046 C10.7590759,6.20462046 9.17491749,6.89768977 8.05280528,8.05280528 C6.93069307,9.17491749 6.20462046,10.7590759 6.20462046,12.4752475 C6.20462046,14.1914191 6.93069307,15.7755776 8.05280528,16.8976898 C9.17491749,18.019802 10.7590759,18.7458746 12.4752475,18.7458746 C14.1914191,18.7458746 15.7755776,18.0528053 16.8976898,16.8976898 C18.019802,15.7755776 18.7458746,14.1914191 18.7458746,12.4752475 C18.7458746,10.7590759 18.0528053,9.17491749 16.8976898,8.05280528 Z" id="Shape"></path>
                <path d="M24.0924092,11.6171617 L21.5511551,11.6171617 C21.0891089,11.6171617 20.6930693,12.0132013 20.6930693,12.4752475 C20.6930693,12.9372937 21.0891089,13.3333333 21.5511551,13.3333333 L24.0924092,13.3333333 C24.5544554,13.3333333 24.950495,12.9372937 24.950495,12.4752475 C24.950495,12.0132013 24.5544554,11.6171617 24.0924092,11.6171617 Z" id="Shape"></path>
                <path d="M12.4752475,20.6930693 C12.0132013,20.6930693 11.6171617,21.0891089 11.6171617,21.5511551 L11.6171617,24.0924092 C11.6171617,24.5544554 12.0132013,24.950495 12.4752475,24.950495 C12.9372937,24.950495 13.3333333,24.5544554 13.3333333,24.0924092 L13.3333333,21.5511551 C13.3333333,21.0891089 12.9372937,20.6930693 12.4752475,20.6930693 Z" id="Shape"></path>
                <path d="M21.2871287,20.0990099 L19.4719472,18.2838284 C19.1749175,17.9537954 18.6138614,17.9537954 18.2838284,18.2838284 C17.9537954,18.6138614 17.9537954,19.1419142 18.2838284,19.4719472 L20.0990099,21.2871287 C20.4290429,21.6171617 20.9570957,21.6171617 21.2871287,21.2871287 C21.6171617,20.9570957 21.6171617,20.4290429 21.2871287,20.0990099 Z" id="Shape"></path>
                <path d="M12.4752475,0 C12.0132013,0 11.6171617,0.396039604 11.6171617,0.858085809 L11.6171617,3.39933993 C11.6171617,3.86138614 12.0132013,4.25742574 12.4752475,4.25742574 C12.9372937,4.25742574 13.3333333,3.86138614 13.3333333,3.39933993 L13.3333333,0.858085809 C13.3333333,0.396039604 12.9372937,0 12.4752475,0 Z" id="Shape"></path>
                <path d="M21.320132,3.66336634 C20.990099,3.33333333 20.4620462,3.33333333 20.1320132,3.66336634 L18.3168317,5.47854785 C17.9867987,5.80858086 17.9867987,6.33663366 18.3168317,6.66666667 C18.6138614,6.99669967 19.1749175,6.99669967 19.5049505,6.66666667 L21.320132,4.85148515 C21.650165,4.52145215 21.650165,3.99339934 21.320132,3.66336634 Z" id="Shape"></path>
                <path d="M3.39933993,11.6171617 L0.858085809,11.6171617 C0.396039604,11.6171617 0,12.0132013 0,12.4752475 C0,12.9372937 0.363036304,13.3333333 0.858085809,13.3333333 L3.39933993,13.3333333 C3.86138614,13.3333333 4.25742574,12.9372937 4.25742574,12.4752475 C4.25742574,12.0132013 3.86138614,11.6171617 3.39933993,11.6171617 Z" id="Shape"></path>
                <path d="M6.63366337,18.2838284 C6.33663366,17.9537954 5.77557756,17.9537954 5.44554455,18.2838284 L3.63036304,20.0990099 C3.30033003,20.4290429 3.30033003,20.9570957 3.63036304,21.2871287 C3.96039604,21.6171617 4.48844884,21.6171617 4.81848185,21.2871287 L6.63366337,19.4719472 C6.96369637,19.1419142 6.96369637,18.6138614 6.63366337,18.2838284 Z" id="Shape"></path>
                <path d="M6.63366337,5.47854785 L4.81848185,3.66336634 C4.48844884,3.33333333 3.96039604,3.33333333 3.63036304,3.66336634 C3.30033003,3.99339934 3.30033003,4.52145215 3.63036304,4.85148515 L5.44554455,6.66666667 C5.77557756,6.99669967 6.30363036,6.99669967 6.63366337,6.66666667 C6.96369637,6.33663366 6.96369637,5.80858086 6.63366337,5.47854785 Z" id="Shape"></path>
            </g>
        </g>
    </g>
</svg>